<mxfile host="app.diagrams.net" modified="2023-09-19T12:24:59.260Z" agent="Mozilla/5.0 (X11; Linux x86_64) AppleWebKit/537.36 (KHTML, like Gecko) Chrome/116.0.0.0 Safari/537.36" version="21.6.8" etag="VLgPNT6UC1x2sV6sGx_-" type="github">
  <diagram name="Page-1" id="A03EzcnyZWB0yI0xgy7R">
    <mxGraphModel>
      <root>
        <mxCell id="0" />
        <mxCell id="1" parent="0" />
      </root>
    </mxGraphModel>
  </diagram>
</mxfile>
